<svg width="600" height="320" xmlns="http://www.w3.org/2000/svg" preserveAspectRatio="xMidYMid meet">
 <metadata>Created by potrace 1.10, written by Peter Selinger 2001-2011</metadata>

 <g>
  <title>background</title>
  <rect x="-1" y="-1" width="602" height="322" id="canvas_background" fill="none"/>
 </g>
 <g>
  <title>Layer 1</title>
  <g transform="translate(0,300) scale(0.10000000149011612,-0.10000000149011612) " fill="#000000" id="svg_1">
   <path d="m1346,2850c-543,-68 -981,-429 -1145,-942c-42,-134 -61,-259 -61,-414c0,-220 43,-402 140,-599c305,-616 1021,-904 1675,-675c189,66 338,163 496,320c167,165 262,318 334,533c54,162 68,271 62,471c-4,148 -9,187 -35,287c-80,310 -254,569 -511,762c-88,66 -256,155 -361,190c-175,60 -427,88 -594,67zm361,-66c175,-31 334,-99 506,-216c185,-127 373,-349 469,-557c39,-83 95,-258 85,-267c-2,-3 -22,5 -43,18c-32,19 -53,23 -121,23c-45,0 -87,-5 -93,-11c-7,-7 3,-10 37,-10c76,0 127,-20 184,-72c48,-44 52,-53 60,-107c4,-33 6,-62 3,-65c-3,-3 -15,7 -26,23c-28,38 -98,84 -150,98c-48,13 -125,6 -152,-14c-14,-10 -9,-12 28,-9c87,7 187,-47 239,-130c50,-78 58,-109 46,-176c-13,-79 -41,-182 -48,-181c-3,0 -24,28 -46,62c-73,112 -179,171 -310,171c-76,0 -126,-19 -145,-54c-13,-25 -7,-25 27,-3c41,27 125,22 201,-12c82,-37 168,-127 206,-217l28,-65l-26,-50c-55,-111 -172,-269 -266,-363c-98,-98 -254,-211 -373,-271c-79,-40 -243,-93 -337,-110c-96,-16 -294,-16 -390,0c-373,65 -719,310 -929,660c-218,362 -236,778 -50,1156c233,475 740,794 1219,768c47,-2 122,-11 167,-19z" id="svg_2"/>
   <path d="m1287,2734c-499,-90 -947,-549 -1027,-1052c-14,-86 -14,-268 0,-357c73,-472 489,-921 960,-1038c109,-27 259,-40 346,-32l79,8l-99,13c-55,8 -129,23 -165,35c-194,61 -351,211 -351,333l0,41l24,-50c46,-98 139,-164 316,-222c44,-14 86,-18 210,-17c140,1 163,3 236,27c153,51 275,156 353,306c119,230 41,469 -163,497c-36,5 -47,3 -66,-16c-12,-12 -19,-24 -16,-28c4,-3 12,0 18,6c14,14 67,16 102,2c48,-18 104,-79 121,-131c27,-81 18,-189 -23,-270c-90,-178 -239,-271 -461,-288c-170,-13 -271,14 -362,96c-51,47 -69,81 -69,136c0,50 22,77 62,77c35,0 42,-11 15,-24c-28,-14 -34,-57 -11,-90c9,-15 46,-41 83,-59c60,-29 74,-32 156,-32c105,1 171,23 249,82c57,44 82,76 92,118c6,29 5,28 -25,-13c-93,-126 -278,-157 -373,-62c-33,32 -38,44 -38,82c0,54 27,88 70,88c33,0 48,-15 24,-24c-10,-4 -14,-15 -12,-33c9,-81 170,-59 247,34c32,39 61,110 61,150c0,52 -72,164 -104,163c-6,0 -3,-5 7,-11c28,-16 57,-84 57,-133c0,-78 -68,-133 -127,-104c-35,17 -39,34 -10,42c54,13 33,103 -33,141c-47,27 -144,25 -220,-4c-31,-11 -104,-52 -162,-90c-115,-75 -151,-118 -129,-153c15,-24 7,-37 -35,-54c-67,-28 -164,-11 -172,30c-5,24 46,76 74,76c24,0 45,20 22,20c-29,1 69,71 182,129c134,69 180,103 180,133c0,17 -8,13 -49,-24c-26,-23 -95,-68 -152,-98c-57,-30 -123,-70 -146,-87c-24,-18 -43,-29 -43,-23c0,15 87,80 197,147c54,34 118,82 140,106c47,50 73,119 56,145c-15,26 -62,45 -120,50c-67,6 -143,-29 -202,-93c-38,-41 -41,-43 -51,-25c-6,11 -16,20 -22,20c-9,0 -9,-3 0,-12c7,-7 12,-26 12,-43l0,-30l-23,27c-24,29 -62,44 -71,29c-3,-5 6,-12 19,-15c14,-4 31,-18 37,-31c14,-31 4,-43 -17,-21c-17,16 -33,20 -70,16c-23,-2 -55,-28 -55,-44c0,-6 5,-5 12,2c17,17 64,15 82,-4c9,-8 16,-30 16,-47c0,-41 -50,-129 -89,-156c-36,-26 -95,-27 -137,-3c-76,42 -134,86 -134,101c0,11 5,9 16,-8l16,-23l19,31c22,36 29,40 22,11c-9,-33 5,-68 37,-90l30,-21l-7,46c-5,41 -3,49 22,75l29,30l-38,0c-37,0 -38,1 -34,33c3,17 9,41 13,52c11,27 -47,-26 -86,-79c-16,-21 -29,-34 -29,-28c0,7 28,43 63,80c41,45 68,86 81,120c10,29 38,75 65,104l46,51l6,91c7,104 20,136 89,216c60,71 97,127 106,164l7,29l18,-24l18,-24l10,28c6,16 11,39 11,53c0,13 4,24 9,24c15,0 29,-52 23,-88c-6,-42 6,-40 53,8c29,30 47,40 71,40c54,0 64,-34 39,-120l-8,-25l31,29c84,78 101,226 45,396c-18,52 -37,126 -44,163c-6,37 -13,66 -16,64c-2,-3 -8,-76 -13,-163c-10,-177 -24,-239 -73,-310c-39,-57 -52,-63 -61,-30c-4,17 5,47 28,96c34,70 52,136 96,351c27,128 29,134 66,125c44,-11 84,-63 151,-192c71,-137 103,-241 103,-333c0,-95 -17,-139 -75,-195c-48,-47 -49,-49 -20,-42c76,19 127,85 151,194c9,42 25,93 35,113c21,42 82,99 107,99c13,0 12,-3 -6,-15c-36,-26 -72,-97 -72,-143c0,-23 5,-42 10,-42c6,0 10,7 10,15c0,29 60,84 112,101c107,35 243,1 333,-86c94,-90 222,-151 314,-149l46,0l-50,16c-143,44 -247,173 -184,232c27,25 43,22 -151,25c-97,2 -147,8 -180,20c-104,39 -107,91 -10,158l25,18l-30,-6c-48,-9 -117,-35 -157,-61c-43,-26 -44,-26 -23,23c17,40 14,39 -63,-23c-58,-47 -88,-59 -124,-47c-21,7 -20,8 18,24c26,12 68,48 120,105c81,90 149,135 206,135c40,0 43,-17 5,-29c-46,-16 -107,-84 -107,-120c0,-5 30,4 67,22c55,25 84,32 153,35c52,3 102,-1 130,-9l45,-13l-66,-7c-71,-8 -113,-25 -143,-58c-19,-21 -19,-22 1,-49c11,-15 38,-32 59,-39c42,-12 217,-15 324,-4l65,6l-115,115c-202,202 -420,322 -666,365c-107,18 -302,18 -407,-1zm53,-1353c14,-10 26,-26 28,-35c5,-23 -15,-20 -21,4c-3,11 -25,29 -49,41c-35,16 -37,19 -13,14c17,-3 41,-14 55,-24zm-150,-44c0,-7 9,-30 20,-52c11,-21 18,-41 15,-43c-8,-9 -88,19 -118,40c-32,23 -30,27 27,57c40,20 56,20 56,-2zm65,7c18,-19 17,-85 -1,-91c-12,-4 -54,72 -54,95c0,17 36,15 55,-4zm85,-69c-7,-9 -15,-13 -17,-11c-7,7 7,26 19,26c6,0 6,-6 -2,-15zm-133,-45l28,-1l-30,-22c-16,-12 -38,-30 -47,-39c-10,-10 -23,-18 -28,-18c-13,0 -50,83 -50,111c0,18 3,18 50,-6c27,-14 62,-25 77,-25zm-137,23c0,-10 9,-37 20,-60c21,-47 16,-50 -33,-29c-61,28 -62,30 -31,70c32,40 44,45 44,19zm23,-136c-10,-5 -25,-19 -34,-30c-16,-20 -17,-20 -38,21c-35,68 -29,76 34,45c46,-23 52,-29 38,-36zm-78,-45c-7,-8 -75,9 -75,18c0,5 10,25 22,45l21,37l18,-48c10,-26 17,-50 14,-52zm-7,-18c6,-4 -32,-53 -40,-54c-6,0 -48,62 -48,72c0,5 79,-12 88,-18zm-88,-13c0,-4 19,-30 42,-56l43,-48l-40,5c-22,3 -57,13 -78,21l-37,16l25,25c14,14 25,30 25,36c0,5 5,10 10,10c6,0 10,-4 10,-9zm-15,-119c-3,-7 -5,-18 -5,-23c0,-5 -7,-9 -15,-9c-13,0 -65,65 -65,82c0,4 20,-2 45,-14c30,-14 44,-27 40,-36zm25,-23c-7,-11 -14,-18 -17,-15c-3,3 0,12 7,21c18,21 23,19 10,-6z" id="svg_3"/>
   <path d="m1432,2275c20,-34 23,-53 23,-130c0,-76 -5,-99 -27,-146c-28,-62 -89,-135 -119,-144c-10,-4 -19,-11 -19,-17c0,-16 105,-1 159,23c76,33 122,89 120,146c0,27 -1,26 -18,-12c-21,-47 -34,-59 -86,-80l-38,-16l36,48c19,27 38,62 42,78c6,29 5,29 -14,-6c-11,-19 -27,-42 -37,-50c-14,-11 -13,-7 4,27c46,90 36,228 -20,287l-30,32l24,-40z" id="svg_4"/>
   <path d="m2440,2202c-46,-22 -51,-55 -14,-93c15,-16 41,-33 58,-38c48,-15 116,-24 116,-15c0,16 -103,164 -114,164c-6,0 -27,-8 -46,-18z" id="svg_5"/>
   <path d="m1801,1994c-50,-110 -172,-184 -363,-220c-96,-18 -160,-48 -207,-98c-35,-36 -33,-48 4,-23c41,28 109,48 231,67c143,23 201,48 276,118c54,50 88,107 88,146c0,35 -15,40 -29,10z" id="svg_6"/>
   <path d="m2030,1931c-56,-12 -113,-46 -158,-95c-23,-25 -42,-48 -42,-52c0,-3 17,4 38,16c113,68 222,76 362,30c53,-18 111,-30 141,-30c55,0 129,18 129,31c0,5 -6,6 -13,3c-28,-10 -143,17 -214,50c-40,19 -99,40 -130,45c-62,12 -62,12 -113,2z" id="svg_7"/>
   <path d="m1175,1801c-16,-10 -39,-28 -50,-41c-38,-44 -117,-100 -140,-100c-38,0 -38,17 1,60c43,48 34,51 -28,10c-73,-49 -83,-71 -87,-203c-1,-18 -19,-46 -56,-87c-66,-72 -72,-88 -10,-31c24,22 52,41 60,41c18,0 14,-7 -50,-110c-19,-30 -35,-64 -35,-75c0,-13 14,1 38,40c44,69 59,81 164,124c55,23 88,45 117,76c58,63 51,73 -14,20c-93,-75 -151,-76 -73,0c25,24 68,80 94,125c27,45 68,101 91,126c46,48 35,61 -22,25zm-155,-200c-11,-17 -40,-46 -63,-66l-42,-36l-3,32c-2,17 2,38 10,45c10,10 77,40 116,53c2,1 -6,-12 -18,-28z" id="svg_8"/>
   <path d="m2126,1792c-3,-5 3,-17 14,-27c28,-25 25,-42 -12,-79c-54,-54 -136,-80 -253,-80c-85,0 -118,5 -225,37c-156,45 -202,51 -272,38c-62,-11 -134,-38 -126,-47c3,-3 34,0 68,6c83,15 177,0 352,-56c181,-58 235,-66 330,-49c191,33 290,139 211,224c-29,32 -77,50 -87,33z" id="svg_9"/>
   <path d="m1747,1444c114,-115 177,-154 249,-154c44,0 74,22 74,56c0,17 -8,19 -74,19c-73,0 -75,1 -145,50c-145,103 -193,135 -201,135c-4,0 39,-48 97,-106z" id="svg_10"/>
   <path d="m1590,1503c0,-5 5,-25 10,-45c26,-93 -34,-185 -206,-315c-29,-21 -28,-21 41,2c42,15 93,25 128,25c54,0 56,1 45,19c-10,16 -7,29 17,77c46,91 39,198 -16,232c-10,7 -19,9 -19,5z" id="svg_11"/>
   <path d="m1674,1463c2,-10 8,-36 11,-58c11,-66 25,-101 47,-121c21,-19 21,-19 15,6c-3,14 -9,45 -12,70c-9,63 -24,99 -47,111c-17,9 -19,8 -14,-8z" id="svg_12"/>
   <path d="m1266,1461c-5,-7 6,-11 33,-11c81,0 121,-31 121,-93c0,-52 21,-36 23,17c2,57 -36,89 -111,94c-37,3 -62,0 -66,-7z" id="svg_13"/>
  </g>
  <metadata>Created by potrace 1.10, written by Peter Selinger 2001-2011</metadata>
  <g id="svg_34" stroke="null">
   <g transform="matrix(0.16102449858966303,0,0,-0.1886308198908724,-119.31742446681204,-2258.758754138292) " fill="#000000" id="svg_17">
    <path d="m3923.95444,-12562.97322c-9,-24 -7,-32 4,-15c5,8 10,10 10,5c0,-6 -9,-19 -21,-28c-20,-18 -21,-18 -15,5c3,13 -3,3 -15,-22c-32,-69 -59,-187 -58,-249c1,-47 3,-51 9,-26c7,28 8,26 9,-15c1,-25 6,-52 12,-60c7,-11 8,2 5,45c-4,39 -3,51 3,35l8,-25l6,25c3,14 11,51 17,83c6,31 16,55 21,52c5,-4 9,-12 9,-18c0,-26 69,-154 86,-161c25,-9 34,10 34,74c0,63 25,171 42,181c6,4 24,3 39,-1c16,-5 29,-6 29,-2c0,3 4,2 9,-4c6,-5 2,-43 -10,-94c-19,-86 -26,-193 -9,-140c8,24 8,24 9,-7c1,-17 4,-34 9,-37c4,-2 7,11 6,30c-1,19 2,34 7,34c5,0 7,-12 4,-27c-5,-23 -4,-25 4,-8c5,11 13,38 16,59c5,30 9,36 16,25c7,-10 8,-6 4,12c-4,16 3,57 16,100c12,41 22,80 20,88c-1,7 2,10 8,7c5,-4 12,-2 16,4c3,5 26,10 51,10c28,0 43,4 39,10c-4,6 5,10 20,10c15,0 24,4 20,10c-3,6 0,11 7,11c7,1 -7,5 -32,10c-62,11 -202,-8 -273,-36c-15,-6 -16,-4 -8,18c8,19 6,27 -4,31c-10,3 -12,0 -8,-11c5,-12 3,-14 -7,-8c-10,6 -12,4 -7,-8c4,-11 1,-17 -8,-17c-9,0 -12,-6 -8,-17c4,-11 3,-14 -6,-9c-7,5 -9,16 -5,29c6,19 5,20 -9,9c-9,-7 -20,-34 -26,-60c-5,-26 -14,-58 -19,-72c-11,-29 -11,-28 -37,84c-19,84 -29,106 -39,81zm204,-79c0,-2 -7,-6 -15,-10c-8,-3 -15,-1 -15,4c0,6 7,10 15,10c8,0 15,-2 15,-4zm117,-23c-4,-3 -10,-3 -14,0c-3,4 0,7 7,7c7,0 10,-3 7,-7zm-210,-220c-3,-10 -5,-4 -5,12c0,17 2,24 5,18c2,-7 2,-21 0,-30zm-15,-18c3,-13 1,-22 -3,-19c-9,5 -13,44 -5,44c2,0 6,-11 8,-25z" id="svg_18" stroke="null"/>
    <path d="m3209.95444,-12585.97322c-11,-33 -25,-45 -17,-14c3,9 -4,-1 -15,-24c-28,-59 -50,-148 -55,-229c-3,-48 -2,-61 4,-40l9,30l2,-35c1,-19 5,-44 10,-55c6,-15 9,-8 10,30c2,41 4,45 10,25c8,-24 8,-23 9,8c1,39 21,123 31,135c4,5 10,-3 14,-18c12,-49 66,-153 83,-159c26,-10 33,6 39,84c4,74 20,147 35,164c5,5 15,3 25,-5c10,-8 15,-9 11,-2c-5,8 3,11 28,10c19,-1 35,-3 35,-3c0,-1 -7,-21 -16,-45c-17,-47 -27,-209 -12,-209c4,0 9,-10 9,-22c1,-13 6,-4 13,22c6,25 14,50 18,55c3,6 14,39 23,75c25,102 36,131 46,125c5,-4 6,0 3,8c-3,9 -15,13 -27,11c-12,-2 -7,1 11,8c17,6 32,15 32,19c0,5 5,9 11,9c5,0 7,-5 4,-10c-4,-7 2,-9 19,-4c30,7 32,0 12,-47c-8,-19 -20,-69 -26,-112c-14,-88 -8,-115 35,-143c21,-14 30,-14 54,-4c37,15 84,64 86,90c2,24 -8,26 -25,5c-7,-8 -17,-15 -23,-15c-6,0 -2,7 9,15c10,8 15,15 11,15c-5,0 -21,-9 -35,-21l-27,-21l-3,22c-7,46 7,70 55,91c26,11 57,30 70,43l23,24l-57,-3c-32,-1 -65,-5 -74,-9c-12,-5 -14,0 -11,29c5,42 28,55 95,55c54,0 74,12 52,30c-18,15 -198,31 -250,24c-79,-12 -152,-28 -169,-37c-16,-8 -18,-6 -13,15c5,17 2,25 -7,25c-8,0 -12,-6 -8,-15c3,-10 1,-13 -6,-8c-7,4 -12,1 -12,-8c0,-9 -4,-16 -10,-16c-5,0 -7,-8 -4,-17c5,-14 4,-15 -4,-4c-6,8 -7,21 -4,30c5,13 3,14 -10,3c-9,-7 -19,-28 -22,-47c-4,-19 -13,-49 -20,-65l-13,-31l-12,58c-7,32 -21,76 -30,97l-18,40l-11,-32zm15,-9c-4,-3 -7,0 -7,7c0,7 3,10 7,7c3,-4 3,-10 0,-14zm193,-47c0,-2 -7,-7 -16,-10c-8,-3 -12,-2 -9,4c6,10 25,14 25,6zm247,-228c-2,-13 -4,-5 -4,17c-1,22 1,32 4,23c2,-10 2,-28 0,-40zm-353,-28c4,-25 3,-31 -4,-20c-5,8 -10,26 -10,39c0,32 6,24 14,-19zm13,18c-3,-8 -6,-5 -6,6c-1,11 2,17 5,13c3,-3 4,-12 1,-19zm423,-13c-13,-14 -27,-25 -32,-25c-9,0 42,49 51,50c3,0 -6,-11 -19,-25z" id="svg_19" stroke="null"/>
    <path d="m2724.95444,-12587.97322c-43,-34 -79,-122 -85,-205c-4,-63 -2,-78 18,-109c21,-35 47,-56 70,-56c6,0 9,4 6,9c-3,4 5,6 17,4c16,-3 27,3 40,25c25,43 21,57 -9,33c-33,-26 -41,-26 -55,1c-26,49 0,196 41,233c11,10 20,16 21,14c0,-2 3,-15 5,-29c5,-29 17,-43 40,-46c10,-2 14,3 10,11c-3,8 -1,17 4,20c6,4 10,22 10,41c0,28 -6,38 -32,54c-42,25 -69,25 -101,0z" id="svg_20" stroke="null"/>
    <path d="m2946.95444,-12597.97322c-13,-10 -19,-19 -13,-20c5,0 15,5 22,10c6,6 9,7 7,3c-3,-4 9,-14 27,-23c24,-11 34,-24 39,-50c14,-64 -26,-181 -66,-196c-8,-4 -22,0 -31,7c-13,11 -15,28 -12,91c3,43 1,78 -4,78c-5,0 -6,-4 -3,-10c3,-5 1,-10 -5,-10c-11,0 -9,14 8,60c5,13 3,13 -11,2c-25,-21 -51,-110 -52,-178c0,-73 17,-98 77,-116c38,-11 40,-11 79,28c22,22 50,66 63,98c13,32 26,52 28,45c2,-7 4,20 4,60c-1,71 -2,74 -38,107c-44,39 -83,44 -119,14z" id="svg_21" stroke="null"/>
    <path d="m2942.95444,-12627.97322c-3,-5 1,-10 10,-10c9,0 13,5 10,10c-3,6 -8,10 -10,10c-2,0 -7,-4 -10,-10z" id="svg_22" stroke="null"/>
    <path d="m4290.95444,-12644.97322c4,-3 10,-3 14,0c3,4 0,7 -7,7c-7,0 -10,-3 -7,-7z" id="svg_23" stroke="null"/>
    <path d="m4104.95444,-12688.97322c7,-7 15,-10 18,-7c3,3 -2,9 -12,12c-14,6 -15,5 -6,-5z" id="svg_24" stroke="null"/>
    <path d="m3548.95444,-12713.97322c0,-11 3,-14 6,-6c3,7 2,16 -1,19c-3,4 -6,-2 -5,-13z" id="svg_25" stroke="null"/>
    <path d="m4253.95444,-12712.97322c-3,-9 -6,-22 -5,-28c0,-7 5,-1 10,12c5,13 8,26 5,28c-2,2 -6,-3 -10,-12z" id="svg_26" stroke="null"/>
    <path d="m3537.95444,-12747.97322c0,-7 3,-10 7,-7c3,4 3,10 0,14c-4,3 -7,0 -7,-7z" id="svg_27" stroke="null"/>
    <path d="m4238.95444,-12773.97322c0,-11 3,-14 6,-6c3,7 2,16 -1,19c-3,4 -6,-2 -5,-13z" id="svg_28" stroke="null"/>
    <path d="m3527.95444,-12787.97322c0,-7 3,-10 7,-7c3,4 3,10 0,14c-4,3 -7,0 -7,-7z" id="svg_29" stroke="null"/>
    <path d="m4227.95444,-12807.97322c0,-7 3,-10 7,-7c3,4 3,10 0,14c-4,3 -7,0 -7,-7z" id="svg_30" stroke="null"/>
    <path d="m3021.95444,-12929.97322l-19,-23l23,19c12,11 22,21 22,23c0,8 -8,2 -26,-19z" id="svg_31" stroke="null"/>
    <path d="m3437.95444,-12957.97322c0,-7 3,-10 7,-7c3,4 3,10 0,14c-4,3 -7,0 -7,-7z" id="svg_32" stroke="null"/>
    <path d="m4147.95444,-12977.97322c0,-7 3,-10 7,-7c3,4 3,10 0,14c-4,3 -7,0 -7,-7z" id="svg_33" stroke="null"/>
   </g>
  </g>
 </g>
</svg>